<svg id="Ebene_1" data-name="Ebene 1" xmlns="http://www.w3.org/2000/svg" width="16" height="16" viewBox="0 0 16 16"><defs><style>.cls-1{fill:none;stroke-width:1.5px;}.cls-1,.cls-3{stroke:#103a5d;stroke-miterlimit:10;}.cls-2{fill:#103a5d;}.cls-3{fill:#0098d6;stroke-width:0.25px;}</style></defs><title>import_queue_2</title><path class="cls-1" d="M8.1,14.79a6.9,6.9,0,1,1,5.55-11"/><polygon class="cls-2" points="10.33 4.16 15 7.9 15.9 1.98 10.33 4.16"/><path class="cls-3" d="M7.47,2.09H8.76a0,0,0,0,1,0,0V6.71A1.19,1.19,0,0,1,7.58,7.9h-.1a0,0,0,0,1,0,0V2.09a0,0,0,0,1,0,0Z"/><path class="cls-3" d="M5.8,6.36h.11A.65.65,0,0,1,6.56,7v5.37a0,0,0,0,1,0,0H5.15a0,0,0,0,1,0,0V7a.64.64,0,0,1,.64-.64Z" transform="translate(9.87 -0.92) rotate(53.34)"/></svg>