<svg id="Ebene_1" data-name="Ebene 1" xmlns="http://www.w3.org/2000/svg" width="16" height="16" viewBox="0 0 16 16"><defs><style>.cls-1{fill:none;stroke:#103a5d;stroke-miterlimit:10;}.cls-2{fill:#103a5d;}.cls-3{fill:#0098d6;}</style></defs><title>import_queue_2</title><path class="cls-1" d="M7.56,13.71a6.36,6.36,0,1,1,5.71-9.16"/><polygon class="cls-2" points="11.07 4.56 13.91 7.35 14.91 3.49 11.07 4.56"/><path class="cls-3" d="M7,1.81H8.17a0,0,0,0,1,0,0V6.17A1.19,1.19,0,0,1,7,7.35H7a0,0,0,0,1,0,0V1.81A0,0,0,0,1,7,1.81Z"/><path class="cls-3" d="M5.49,5.94h0a.65.65,0,0,1,.65.65v4.9a0,0,0,0,1,0,0H4.84a0,0,0,0,1,0,0V6.58a.64.64,0,0,1,.64-.64Z" transform="translate(9.2 -0.89) rotate(53.34)"/></svg>